<svg viewBox="0 0 305 305" xmlns="http://www.w3.org/2000/svg" xmlns:xlink="http://www.w3.org/1999/xlink" id="Layer_1" overflow="hidden"><style>
.MsftOfcThm_Accent1_Fill_v2 {
 fill:#0C62FB; 
}
</style>
<defs></defs><path d="M242.7 47.51C227.43 47.51 216.1 52.28 208.14 56.89 198.17 28.83 167.98 16.19 141.17 16.19 125.07 16.19 110.22 22.95 98.22 35.74 88.75 45.82 81.65 59.11 77.91 73.57 71.92 70.69 64.4 68.4 48.82 68.4 26.49 68.4 2.35 84.15 1.59 113.35 1.22 127.48 5.95 140.03 15.27 149.63 23.71 158.32 35.61 164.1 48.8 165.91 57.57 168.06 66.25 169.31 84.31 169.31 93.94 169.31 100.97 169.31 108.28 169.32L116.54 169.32 116.54 191.02 82.48 191.02C80.95 191.02 79.55 191.89 78.88 193.27 78.21 194.65 78.39 196.29 79.33 197.49L146.31 282.73C147.05 283.67 148.17 284.23 149.37 284.26 149.4 284.26 149.43 284.26 149.46 284.26 150.63 284.26 151.74 283.75 152.5 282.86L225.57 197.62C226.59 196.43 226.82 194.76 226.17 193.34 225.52 191.92 224.1 191.01 222.54 191.01L188.48 191.01 188.48 169.17C243.84 168.55 256.76 163.73 270.99 155.92 292.84 146.13 303.46 129.39 303.46 104.76 303.46 76.27 284.68 47.51 242.72 47.51ZM124.53 191.01 124.53 74.52 148.5 74.52 148.5 191.01 124.53 191.01ZM149.59 273.95 90.71 199.01 116.36 199.01 150.02 241.62 188.17 199.01 213.83 199.01 149.6 273.95ZM156.5 191.01 156.5 74.52 180.47 74.52 180.47 191.01 156.5 191.01ZM267.56 148.68C267.46 148.72 267.36 148.77 267.26 148.83 254.07 156.09 242.06 160.57 188.46 161.17L188.46 70.52C188.46 68.31 186.67 66.52 184.46 66.52L120.53 66.52C118.32 66.52 116.53 68.31 116.53 70.52L116.53 161.31 108.28 161.31C100.97 161.3 93.93 161.29 84.3 161.29 66.91 161.29 58.74 160.11 50.5 158.07 50.36 158.03 50.21 158.01 50.07 157.99 29.41 155.22 8.88 140.41 9.58 113.54 10.21 89.41 30.27 76.38 48.82 76.38 67.37 76.38 71.94 79.31 78.74 83.01 79.86 83.62 81.2 83.66 82.35 83.12 83.5 82.58 84.33 81.53 84.58 80.28 92.25 41.74 119.3 24.18 141.18 24.18 166.47 24.18 195.07 36.49 201.95 63.99 202.26 65.25 203.17 66.28 204.38 66.75 205.59 67.22 206.95 67.08 208.03 66.36 215.71 61.3 226.6 55.5 242.71 55.5 281.64 55.5 295.45 82.03 295.45 104.75 295.45 118.27 292.56 137.54 267.57 148.68Z" class="MsftOfcThm_Accent1_Fill_v2" fill="#0C62FB"/></svg>