<svg viewBox="0 0 305 305" xmlns="http://www.w3.org/2000/svg" xmlns:xlink="http://www.w3.org/1999/xlink" id="Layer_1" overflow="hidden"><style>
.MsftOfcThm_Accent1_Fill_v2 {
 fill:#0C62FB; 
}
</style>
<defs></defs><path d="M296.44 176.27C288.22 168.79 272.41 171.13 262.62 172.92 263.34 160.03 263.61 146.89 263.85 133.86 263.86 133.69 263.87 133.51 263.85 133.34 263.85 132.99 263.86 132.64 263.87 132.3L263.95 128.23 3.35 128.23 3.43 132.3C4.1 168.69 7.61 214.88 29.06 249.36 51.21 284.96 88.25 302.26 142.29 302.26 196.33 302.26 229.51 284.84 246.88 248.99 247.12 248.5 247.34 248 247.57 247.51 247.72 247.55 247.87 247.6 248.02 247.62 250.1 247.93 252.15 248.08 254.16 248.08 262.76 248.08 270.68 245.28 277.76 239.72 292.17 228.39 300.08 207.66 301.52 192.13 302.16 185.25 300.45 179.92 296.45 176.27ZM40.5 136.22C53.45 142.66 76.88 153.58 94.21 157.58 119.41 163.39 156.84 162.34 173.03 158.87 200.05 153.08 220.58 141.64 229.25 136.22L251.02 136.22C227.53 155.92 184.08 174.27 139.24 174.27 103.54 174.27 50.97 159.87 22.08 136.22L40.5 136.22ZM239.67 245.49C223.55 278.75 192.61 294.25 142.28 294.25 91.95 294.25 56.41 278.18 35.84 245.12 16.46 213.97 12.45 172.01 11.54 137.58 34.95 159.81 88.17 182.27 139.24 182.27 187.64 182.27 231.49 162.84 255.66 142.78 254.88 180.2 253.07 217.82 239.67 245.49ZM293.54 191.38C292.3 204.75 285.28 223.61 272.8 233.42 266.29 238.54 258.88 240.71 250.77 239.9 257.42 222.42 260.51 202.26 262.07 181.16 269.63 179.74 285.18 176.84 291.04 182.18 293.12 184.07 293.93 187.08 293.53 191.38Z" class="MsftOfcThm_Accent1_Fill_v2" fill="#0C62FB"/><path d="M92.62 107.62C93.52 107.62 94.42 107.32 95.17 106.7 96.87 105.29 97.11 102.77 95.7 101.07 90.24 94.48 90.15 85.7 95.41 74.99 97.33 71.09 99.85 67.49 102.52 63.68 106.19 58.44 109.99 53.02 112.2 46.63 117.44 31.55 111.95 13.69 99.17 4.17 97.4 2.85 94.89 3.22 93.57 4.99 92.25 6.76 92.62 9.27 94.39 10.59 104.29 17.96 108.7 32.33 104.64 44.01 102.79 49.34 99.47 54.08 95.96 59.09 93.23 62.99 90.41 67.01 88.22 71.46 79.78 88.64 84.27 99.82 89.52 106.17 90.31 107.13 91.45 107.62 92.6 107.62Z" class="MsftOfcThm_Accent1_Fill_v2" fill="#0C62FB"/><path d="M138.81 107.62C139.29 107.62 139.77 107.53 140.24 107.35 142.3 106.56 143.33 104.24 142.54 102.18 136.68 86.93 140.26 77.03 144.79 67.4 146.78 63.17 149.42 59.68 152.21 56 155.68 51.41 159.28 46.66 161.56 40.38 165.84 28.6 167.83 12.68 152.98 3.77 151.09 2.63 148.63 3.25 147.49 5.14 146.35 7.03 146.97 9.49 148.86 10.63 154.15 13.8 160.44 20.06 154.04 37.65 152.17 42.8 149.09 46.87 145.83 51.18 142.91 55.03 139.9 59.02 137.55 64.01 132.46 74.82 128.08 86.9 135.07 105.07 135.68 106.66 137.2 107.63 138.8 107.63Z" class="MsftOfcThm_Accent1_Fill_v2" fill="#0C62FB"/><path d="M177.58 107.62C178.04 107.62 178.51 107.54 178.97 107.37 181.04 106.6 182.1 104.3 181.34 102.23 177.88 92.87 181.45 75.33 186.82 66.49 188.7 63.4 190.85 60.31 192.93 57.33 196.92 51.6 201.05 45.68 203.87 38.95 210.49 23.19 206.11 10.51 200.35 4.43 198.83 2.83 196.3 2.76 194.69 4.28 193.09 5.8 193.02 8.33 194.54 9.93 200.68 16.41 199.95 27.61 196.49 35.84 193.99 41.78 190.29 47.11 186.36 52.74 184.21 55.82 181.99 59.01 179.98 62.32 174.41 71.48 169.01 91.95 173.83 104.99 174.43 106.61 175.96 107.6 177.58 107.6Z" class="MsftOfcThm_Accent1_Fill_v2" fill="#0C62FB"/></svg>