<svg viewBox="0 0 305 305" xmlns="http://www.w3.org/2000/svg" xmlns:xlink="http://www.w3.org/1999/xlink" id="Layer_1" overflow="hidden"><style>
.MsftOfcThm_Accent1_Fill_v2 {
 fill:#0C62FB; 
}
</style>
<defs></defs><path d="M292.49 14.64C286.22 7.02 278.09 2.79 269.6 2.72L107.26 1.4C81.01 1.4 72.56 12.27 68.03 18.11 67.4 18.92 66.86 19.62 66.41 20.1 66.28 20.23 66.17 20.38 66.06 20.53L57.41 32.81C57.23 33.07 57.09 33.35 56.97 33.64 54.32 37.64 52.77 42.44 52.77 47.58L52.77 186.31C52.77 186.63 52.82 186.94 52.89 187.24L3.96 269.12C3.24 269.84 2.79 270.84 2.79 271.94L2.79 297.92C2.79 298.98 3.21 299.99 3.96 300.74 4.71 301.48 5.72 301.9 6.77 301.9L6.78 301.9 237.78 301.14C239.27 301.14 240.63 300.3 241.31 298.98L301.16 182.33C301.45 181.77 301.6 181.15 301.6 180.51L301.6 39.19C301.6 30.63 298.28 21.68 292.49 14.64ZM229.64 266.95 189.85 267.13 197.32 252.2C197.55 251.74 197.53 251.19 197.25 250.75 196.98 250.31 196.5 250.04 195.98 250.04L72.18 250.04C71.68 250.04 71.22 250.29 70.94 250.7L59.42 267.72 13.93 267.93 60.33 190.29 268.74 190.29 229.63 266.96ZM250.92 182.33 80.66 182.33C80.66 182.22 80.69 182.12 80.69 182.01L80.69 64.77C80.69 56.77 87.2 50.25 95.21 50.25L238.13 50.25C245.16 50.25 250.89 55.97 250.89 63.01L250.89 182.01C250.89 182.12 250.91 182.22 250.92 182.33ZM271.02 182.33 258.81 182.33C258.81 182.22 258.84 182.12 258.84 182.01L258.84 63.01C258.84 51.59 249.55 42.3 238.13 42.3L95.21 42.3C82.82 42.3 72.74 52.38 72.74 64.77L72.74 182.01C72.74 182.12 72.76 182.22 72.77 182.33L60.72 182.33 60.72 47.58C60.72 38 68.51 30.21 78.09 30.21L256.09 30.21C264.55 30.21 271.43 37.09 271.43 45.54L271.01 182.33ZM10.74 275.89 229.87 274.9 230.34 293.19 10.74 293.91 10.74 275.88ZM293.64 179.53 238.16 287.67 237.67 268.7 278.52 188.62C278.86 187.95 278.98 187.23 278.93 186.53 278.93 186.45 278.95 186.38 278.95 186.31L279.39 45.54C279.39 32.7 268.94 22.25 256.1 22.25L78.1 22.25C76.95 22.25 75.82 22.33 74.71 22.48 78.72 17.34 85.63 9.35 107.24 9.35L269.55 10.67C280.7 10.76 293.66 23.24 293.66 39.19L293.66 179.54Z" class="MsftOfcThm_Accent1_Fill_v2" fill="#0C62FB"/><path d="M112.56 208.17 73.49 208.17C72.05 208.17 70.73 208.94 70.03 210.19L61.01 226.17C60.32 227.4 60.33 228.91 61.04 230.13 61.75 231.35 63.06 232.1 64.48 232.1L103.8 232.1C105.25 232.1 106.59 231.31 107.29 230.04L116.06 214.06C116.74 212.83 116.71 211.33 116 210.12 115.28 208.91 113.98 208.17 112.58 208.17ZM101.43 224.15 71.28 224.15 75.81 216.12 105.84 216.12 101.43 224.15Z" class="MsftOfcThm_Accent1_Fill_v2" fill="#0C62FB"/><path d="M173.96 208.17 133.77 208.17C132.31 208.17 130.97 208.97 130.27 210.25L121.58 226.23C120.91 227.46 120.94 228.96 121.66 230.16 122.38 231.37 123.68 232.1 125.08 232.1L164.4 232.1C165.8 232.1 167.1 231.37 167.81 230.16L177.37 214.18C178.11 212.95 178.12 211.42 177.42 210.18 176.71 208.93 175.39 208.16 173.96 208.16ZM162.14 224.15 131.77 224.15 136.14 216.12 166.94 216.12 162.14 224.15Z" class="MsftOfcThm_Accent1_Fill_v2" fill="#0C62FB"/><path d="M236.51 210.07C235.79 208.89 234.5 208.17 233.12 208.17L194.61 208.17C193.17 208.17 191.84 208.95 191.14 210.21L182.22 226.19C181.53 227.42 181.55 228.93 182.26 230.14 182.97 231.36 184.28 232.1 185.69 232.1L225 232.1C226.5 232.1 227.87 231.26 228.55 229.92L236.67 213.94C237.3 212.71 237.24 211.24 236.51 210.06ZM222.56 224.16 192.46 224.16 196.94 216.13 226.63 216.13 222.55 224.16Z" class="MsftOfcThm_Accent1_Fill_v2" fill="#0C62FB"/></svg>