<svg viewBox="0 0 305 305" xmlns="http://www.w3.org/2000/svg" xmlns:xlink="http://www.w3.org/1999/xlink" id="Layer_1" xml:space="preserve" overflow="hidden"><style>
.MsftOfcThm_Accent1_Fill_v2 {
 fill:#0C62FB; 
}
</style>
<path d="M225.1 38C207.4 15.3 181.8 2.8 153.1 2.8 124.4 2.8 97.9 14.1 80.8 34.5 60.3 58.8 53 94.1 59.9 134 64.1 157.7 76.2 196.8 110.5 249 130.9 280.1 149.9 301.5 150.1 301.7 150.9 302.6 152 303 153.1 303L153.1 303C154.2 303 155.3 302.5 156.1 301.6 158.9 298.4 224.9 221.2 243.9 144.4 253.8 104.6 247 65.8 225.1 38L225.1 38ZM236.2 142.5C219.9 208.3 166.3 276.6 153.1 292.8 139 276.1 80.2 202.8 67.9 132.5 61.2 95.1 68 62.1 86.9 39.6 102.7 20.7 125.6 10.8 153.1 10.8 180.6 10.8 202.7 22.2 218.9 42.9 239.1 68.8 245.4 105.1 236.2 142.5L236.2 142.5Z" class="MsftOfcThm_Accent1_Fill_v2" fill="#0C62FB"/><path d="M151.6 35.7C113.4 35.7 82.3 66.8 82.3 105 82.3 143.2 113.4 174.3 151.6 174.3 189.8 174.3 221 143.2 221 105 221 66.8 189.8 35.7 151.6 35.7L151.6 35.7ZM151.6 166.4C117.8 166.4 90.3 138.9 90.3 105.1 90.3 71.3 117.8 43.8 151.6 43.8 185.4 43.8 213 71.2 213 105 213 138.8 185.4 166.4 151.6 166.4L151.6 166.4Z" class="MsftOfcThm_Accent1_Fill_v2" fill="#0C62FB"/><path d="M150.9 61.8C127.1 61.8 109.2 79.7 109.2 103.5 109.2 127.3 127.5 147.2 150.9 147.2 162.2 147.2 173.7 142.1 182.2 133.3 190.7 124.5 195.6 113 195.6 101.6 195.6 78.9 176.4 61.8 150.9 61.8L150.9 61.8Z" class="MsftOfcThm_Accent1_Fill_v2" fill="#0C62FB"/></svg>