<svg viewBox="0 0 305 305" xmlns="http://www.w3.org/2000/svg" xmlns:xlink="http://www.w3.org/1999/xlink" id="Layer_1" overflow="hidden"><style>
.MsftOfcThm_Accent1_Fill_v2 {
 fill:#0C62FB; 
}
</style>
<defs></defs><path d="M135.44 94.88C135.44 94.8 135.45 94.73 135.46 94.65 135.44 94.83 135.43 94.89 135.44 94.88Z" class="MsftOfcThm_Accent1_Fill_v2" fill="#0C62FB"/><path d="M110.41 88.69C110.56 88.33 110.24 89.06 110.41 88.69L110.41 88.69Z" class="MsftOfcThm_Accent1_Fill_v2" fill="#0C62FB"/><path d="M101.69 165.54C101.69 165.54 101.69 165.59 101.69 165.61 101.64 166.19 101.85 164.74 101.69 165.54Z" class="MsftOfcThm_Accent1_Fill_v2" fill="#0C62FB"/><path d="M304.57 8.19C304.75 7.36 304.66 6.47 304.29 5.67 303.64 4.27 302.24 3.38 300.7 3.37 300.16 3.37 246.4 2.95 193.13 2.75 161.83 2.63 136.83 2.6 118.8 2.67 83.23 2.8 83.06 2.96 81.49 4.52 81.46 4.55 81.42 4.59 81.39 4.62L4.06 77.71C3.17 78.55 2.73 79.74 2.82 80.92 2.82 80.96 2.81 81 2.81 81.04L2.81 300.39C2.81 302.6 4.6 304.39 6.81 304.39L240.55 304.39C241.98 304.39 243.31 303.62 244.02 302.38L304.13 197.39C304.48 196.79 304.66 196.1 304.66 195.4L304.66 9.04C304.66 8.75 304.62 8.46 304.56 8.19ZM88.25 7.98C88.15 8.62 87.91 9.18 87.58 9.64 87.92 9.14 88.15 8.58 88.25 7.98ZM236.53 296.39 10.81 296.39 10.81 84.61 52.45 84.61 53.98 183.24C54.01 184.88 55.34 186.19 56.98 186.19L167.56 186.19C169.22 186.19 170.56 184.85 170.56 183.19L170.56 84.61 236.53 84.61 236.53 296.38ZM134.43 116.93C134.71 133.54 137.12 150.03 137.14 166.65 137.14 168.75 135.42 170.31 133.39 170.4 131.36 170.49 129.64 168.61 129.64 166.65 129.63 157.09 128.88 147.57 128.12 138.05 127.45 129.66 126.87 121.27 126.91 112.85 126.93 108.23 127.13 103.61 127.53 99.01 127.73 96.65 127.89 94.23 128.39 91.91 128.84 89.85 129.62 87.89 130.48 85.97 133.65 78.87 138.88 73.23 144.06 67.56 148.92 62.24 153.5 56.52 157.79 50.91 159.02 49.29 160.99 48.44 162.92 49.56 164.52 50.49 165.49 53.08 164.27 54.69 159.21 61.32 154.03 67.83 148.37 73.95 147.31 75.1 146.22 76.22 145.17 77.39 143.9 78.81 142.81 80.16 141.93 81.37 140.73 83.02 139.61 84.73 138.61 86.51 137.59 88.33 136.89 89.78 136.34 91.39 136.04 92.27 135.79 93.16 135.6 94.07 135.57 94.22 135.47 94.84 135.45 94.87 135.38 95.44 135.32 96.02 135.26 96.59 135.02 98.95 134.83 101.31 134.7 103.67 134.44 108.08 134.37 112.5 134.44 116.92ZM135.01 56.36C131.95 60.6 128.71 64.68 125.16 68.51 122.57 71.31 119.76 73.94 117.38 76.92 117.36 76.94 117.34 76.97 117.32 76.99 117.28 77.04 117.2 77.14 117.15 77.2L117.13 77.23C117.13 77.23 117.06 77.33 117.02 77.37L117.1 77.27C116.88 77.56 116.66 77.85 116.45 78.15 115.97 78.81 115.51 79.48 115.06 80.15 114.04 81.69 113.09 83.28 112.22 84.91 111.72 85.85 111.24 86.81 110.8 87.78 110.67 88.06 110.55 88.34 110.43 88.62L110.4 88.68 110.37 88.75C110.18 89.21 110 89.68 109.83 90.14 109.05 92.24 108.42 94.41 107.99 96.61 107.63 98.48 107.44 100.53 107.52 102.93 107.61 105.49 108 108.04 108.27 110.58 108.66 114.3 109.03 118.02 109.26 121.75 109.66 128.04 109.53 134.35 109.51 140.65 109.5 145.62 109.57 150.59 109.57 155.56 109.57 159.78 109.6 164.11 108.78 168.27 108.38 170.33 106.03 171.31 104.17 170.89 102.09 170.42 101.17 168.2 101.55 166.28 101.6 166.04 101.64 165.79 101.68 165.55L101.68 165.53C101.72 165.1 101.78 164.68 101.81 164.25 101.91 163.1 101.96 161.94 102 160.78 102.09 158.04 102.08 155.3 102.06 152.56 102.03 147.31 102 142.07 102.03 136.82 102.06 130.73 102.03 124.66 101.53 118.58 101.17 114.1 100.65 109.63 100.18 105.16 99.68 100.37 100.32 95.45 101.69 90.85 103.91 83.42 107.92 76.43 112.95 70.54 115.31 67.78 117.96 65.26 120.41 62.59 123.5 59.22 125.98 56.1 128.52 52.57 129.71 50.92 131.76 50.12 133.65 51.22 135.28 52.17 136.18 54.71 135 56.35ZM107.65 56.87C105.8 58.18 103.89 59.79 102 61.56 100.08 63.36 98.24 65.26 96.46 67.2 93.34 70.59 90.36 74.1 87.24 77.48 87.19 77.53 87.17 77.56 87.14 77.59 87.08 77.68 87.01 77.76 86.95 77.85 86.74 78.15 86.54 78.47 86.36 78.78 85.96 79.46 85.62 80.18 85.28 80.89 85.26 80.94 85.24 80.98 85.22 81.01 85.21 81.05 85.19 81.1 85.17 81.15 85.09 81.35 85.01 81.55 84.94 81.75 84.79 82.16 84.64 82.58 84.5 82.99 84.21 83.85 83.95 84.73 83.72 85.61 83.22 87.48 82.82 89.37 82.5 91.27 82.41 91.78 82.33 92.3 82.25 92.81 82.23 92.96 82.21 93.12 82.18 93.27 82.17 93.35 82.16 93.45 82.15 93.5 82.05 94.36 81.95 95.23 81.87 96.1 81.51 100.16 81.59 104.26 81.61 108.34 81.63 112.17 81.71 115.99 81.82 119.82 82.03 126.47 82.36 133.12 82.47 139.78 82.61 148.46 82.35 157.13 81.88 165.8 81.77 167.9 80.25 169.45 78.13 169.55 76.18 169.64 74.27 167.76 74.38 165.8 74.91 156.12 75.15 146.43 74.91 136.73 74.74 129.85 74.38 122.97 74.22 116.09 74.03 107.78 73.78 99.42 74.96 91.17 75.51 87.3 76.33 83.43 77.7 79.76 78.38 77.96 79.14 76.14 80.17 74.51 81.22 72.86 82.58 71.48 83.88 70.04 90.16 63.07 96.14 55.83 103.87 50.37 105.53 49.2 108.05 50.08 109 51.72 110.08 53.58 109.31 55.68 107.65 56.85ZM238.66 76.61 175.24 76.61 209.69 46.45C210.63 45.63 210.96 44.31 210.52 43.14 210.08 41.97 208.96 41.2 207.71 41.2L91.12 41.2C90.33 41.2 89.58 41.51 89.02 42.06L53.89 76.61 16.86 76.61 86.16 11.11C98.86 10.21 212.04 10.7 292.27 11.29L238.67 76.61ZM296.67 194.33 244.53 285.39 244.53 82.71C244.53 82.52 244.5 82.33 244.47 82.15L296.67 18.54 296.67 194.34Z" class="MsftOfcThm_Accent1_Fill_v2" fill="#0C62FB"/><path d="M85.22 81.03C85.44 80.41 84.93 81.62 85.22 81.03L85.22 81.03Z" class="MsftOfcThm_Accent1_Fill_v2" fill="#0C62FB"/><path d="M82.14 93.52C82.15 93.45 82.16 93.38 82.17 93.3 82.19 93.14 82.21 93.04 82.14 93.52Z" class="MsftOfcThm_Accent1_Fill_v2" fill="#0C62FB"/><path d="M87.08 77.66C87.08 77.66 87.12 77.62 87.13 77.6 87.17 77.54 87.21 77.49 87.25 77.43 87.17 77.54 87.11 77.61 87.07 77.66Z" class="MsftOfcThm_Accent1_Fill_v2" fill="#0C62FB"/></svg>